<mxfile host="www.draw.io" modified="2020-01-14T01:45:40.068Z" agent="Mozilla/5.0 (Windows NT 10.0; Win64; x64) AppleWebKit/537.36 (KHTML, like Gecko) Chrome/66.0.3359.170 Safari/537.36" etag="-rlhzwOwktAKb5CIXTAU" version="12.5.1" type="github">
  <diagram id="JyNsOEevbBKGcZC2KQ4o" name="第 1 页">
    <mxGraphModel dx="1408" dy="711" grid="1" gridSize="10" guides="1" tooltips="1" connect="1" arrows="1" fold="1" page="1" pageScale="1" pageWidth="827" pageHeight="1169" math="0" shadow="0">
      <root>
        <mxCell id="0"/>
        <mxCell id="1" parent="0"/>
      </root>
    </mxGraphModel>
  </diagram>
</mxfile>
